<?xml version="1.0" encoding="UTF-8" standalone="no"?>
<svg
   xmlns:dc="http://purl.org/dc/elements/1.1/"
   xmlns:cc="http://creativecommons.org/ns#"
   xmlns:rdf="http://www.w3.org/1999/02/22-rdf-syntax-ns#"
   xmlns:svg="http://www.w3.org/2000/svg"
   xmlns="http://www.w3.org/2000/svg"
   xmlns:xlink="http://www.w3.org/1999/xlink"
   xmlns:sodipodi="http://sodipodi.sourceforge.net/DTD/sodipodi-0.dtd"
   xmlns:inkscape="http://www.inkscape.org/namespaces/inkscape"
   id="Layer_1"
   data-name="Layer 1"
   viewBox="0 0 735 852"
   version="1.1"
   sodipodi:docname="logo.svg"
   inkscape:version="0.92.5 (2060ec1f9f, 2020-04-08)"
   inkscape:export-filename="/home/nic2/docreview/man/figures/logo.png"
   inkscape:export-xdpi="96"
   inkscape:export-ydpi="96">
  <metadata
     id="metadata5429">
    <rdf:RDF>
      <cc:Work
         rdf:about="">
        <dc:format>image/svg+xml</dc:format>
        <dc:type
           rdf:resource="http://purl.org/dc/dcmitype/StillImage" />
      </cc:Work>
    </rdf:RDF>
  </metadata>
  <sodipodi:namedview
     pagecolor="#ffffff"
     bordercolor="#666666"
     borderopacity="1"
     objecttolerance="10"
     gridtolerance="10"
     guidetolerance="10"
     inkscape:pageopacity="0"
     inkscape:pageshadow="2"
     inkscape:window-width="2488"
     inkscape:window-height="1376"
     id="namedview5427"
     showgrid="false"
     inkscape:zoom="1.1079812"
     inkscape:cx="187.50767"
     inkscape:cy="351.17466"
     inkscape:window-x="1992"
     inkscape:window-y="27"
     inkscape:window-maximized="1"
     inkscape:current-layer="Layer_1" />
  <defs
     id="defs5306">
    <style
       id="style5304">.cls-1,.cls-2{fill:#fff;}.cls-2{opacity:0.25;}.cls-3{fill:#db1f26;}.cls-4{fill:#4d4d4d;}.cls-5{fill:#e6b35a;}</style>
    <clipPath
       clipPathUnits="userSpaceOnUse"
       id="clipPath6312">
      <use
         x="0"
         y="0"
         xlink:href="#g6308"
         id="use6314"
         width="100%"
         height="100%" />
    </clipPath>
  </defs>
  <title
     id="title5308">knitr</title>
  <path
     class="cls-3"
     d="M734.91,637.38V213.13l-29.3-16.92L427.81,35.82,367.5,1,307.19,35.82,29.37,196.22.09,213.13V637.38l29.28,16.91L310.65,816.68l56.85,32.83,56.85-32.83L705.61,654.3ZM29.37,621.47V231l50-28.88L367.49,35.82h0L654.71,201.65,705.61,231V621.47L367.49,816.68Z"
     id="path5316"
     style="opacity:1" />
  <path
     class="cls-5"
     d="M367,633.9c.29-.29.61-.59.94-.89h-.26C367.49,633.31,367.26,633.61,367,633.9Z"
     id="path5384" />
  <text
     xml:space="preserve"
     style="font-style:normal;font-weight:normal;font-size:40px;line-height:1.25;font-family:sans-serif;letter-spacing:0px;word-spacing:0px;fill:#000000;fill-opacity:1;stroke:none"
     x="101.98729"
     y="614.63135"
     id="text5433"><tspan
       sodipodi:role="line"
       id="tspan5431"
       x="101.98729"
       y="614.63135"
       style="font-size:106.66666412px">docreview</tspan></text>
  <g
     id="g6310"
     clip-path="url(#clipPath6312)"
     transform="translate(40.614407)">
    <g
       inkscape:label="Clip"
       id="g6308">
      <rect
         y="182.31355"
         x="193.14407"
         height="331.23306"
         width="259.02966"
         id="rect6244"
         style="fill:#000000;fill-opacity:0;stroke:#010000;stroke-width:6.69999981;stroke-miterlimit:4;stroke-dasharray:none;stroke-opacity:1" />
      <path
         inkscape:connector-curvature="0"
         id="path6256"
         d="M 245.49152,224.73305 H 398.02118"
         style="fill:none;stroke:#000000;stroke-width:4.5999999;stroke-linecap:butt;stroke-linejoin:miter;stroke-miterlimit:4;stroke-dasharray:none;stroke-opacity:1" />
      <path
         inkscape:connector-curvature="0"
         id="path6258"
         d="M 222.92797,249.1017 H 418.77966"
         style="fill:none;stroke:#000000;stroke-width:6;stroke-linecap:butt;stroke-linejoin:miter;stroke-miterlimit:4;stroke-dasharray:none;stroke-opacity:1" />
      <path
         inkscape:connector-curvature="0"
         id="path6260"
         d="m 217.51271,274.37288 209.38983,-0.90254"
         style="fill:none;stroke:#000000;stroke-width:6;stroke-linecap:butt;stroke-linejoin:miter;stroke-miterlimit:4;stroke-dasharray:none;stroke-opacity:1" />
      <path
         inkscape:connector-curvature="0"
         id="path6260-3"
         d="m 217.51271,299.19279 209.38983,-0.90254"
         style="fill:none;stroke:#000000;stroke-width:6;stroke-linecap:butt;stroke-linejoin:miter;stroke-miterlimit:4;stroke-dasharray:none;stroke-opacity:1" />
      <path
         inkscape:connector-curvature="0"
         id="path6260-6"
         d="m 215.70762,322.65889 209.38983,-0.90254"
         style="fill:none;stroke:#000000;stroke-width:6;stroke-linecap:butt;stroke-linejoin:miter;stroke-miterlimit:4;stroke-dasharray:none;stroke-opacity:1" />
      <path
         inkscape:connector-curvature="0"
         id="path6283"
         d="m 259.02966,416.97458 37.00424,59.5678 113.72034,-113.72034"
         style="fill:none;stroke:#00a400;stroke-width:12.60000038;stroke-linecap:butt;stroke-linejoin:miter;stroke-miterlimit:4;stroke-dasharray:none;stroke-opacity:1" />
      <path
         inkscape:connector-curvature="0"
         id="path6260-6-7"
         d="m 214.80508,347.93008 209.38983,-0.90254"
         style="fill:none;stroke:#000000;stroke-width:6;stroke-linecap:butt;stroke-linejoin:miter;stroke-miterlimit:4;stroke-dasharray:none;stroke-opacity:1" />
    </g>
  </g>
  <path
     style="opacity:1;fill:#000000;fill-opacity:0;stroke:#00a400;stroke-width:11.37203407;stroke-miterlimit:4;stroke-dasharray:none;stroke-opacity:1"
     d="M 184.15136,743.20292 0.93525574,637.39607 0.70880858,425.37812 0.48236133,213.36017 180.22561,109.5678 C 279.08439,52.481994 361.68699,4.8197456 363.78695,3.6516918 L 367.60504,1.5279578 550.92988,107.373 734.2547,213.21803 734.02719,425.38629 733.79966,637.55456 553.74246,741.52189 C 454.711,798.70392 372.26375,846.28133 370.52636,847.24949 l -3.1589,1.76027 z m 353.70492,-24.40596 168.41584,-97.2272 v -195.2842 -195.2842 l -2.03072,-1.26399 C 695.17213,224.09235 368.06144,35.753195 367.36746,35.776871 c -0.4964,0.01694 -75.22691,42.966223 -166.0678,95.442859 -90.84089,52.47664 -166.685897,96.28432 -168.544463,97.35041 l -3.379212,1.93834 0.220313,195.84231 0.220314,195.8423 168.324148,97.25233 c 92.57829,53.48879 168.99365,97.10078 169.81192,96.91553 0.81826,-0.18524 77.27488,-44.08903 169.9036,-97.56399 z"
     id="path6316"
     inkscape:connector-curvature="0" />
  <path
     style="opacity:1;fill:#000000;fill-opacity:0;stroke:#00a400;stroke-width:11.37203407;stroke-miterlimit:4;stroke-dasharray:none;stroke-opacity:1"
     d="M 275.75886,789.07778 C 87.028687,680.08647 19.703815,641.22914 13.374189,637.63944 L 6.8597319,633.94492 6.8307565,425.33801 6.8017812,216.7311 81.487163,173.61329 C 314.38538,39.155112 366.88745,8.9343243 367.58122,8.9343243 c 0.42231,0 81.57272,46.6556257 180.33424,103.6791657 l 179.56641,103.67917 0.22755,208.83652 0.22754,208.83651 -91.38432,52.75235 c -50.26139,29.0138 -131.33908,75.81723 -180.17267,104.00762 -48.83358,28.1904 -88.83902,51.25528 -88.90097,51.25528 -0.0619,0 -41.33601,-23.80643 -91.72014,-52.90316 z m 106.88442,25.89506 c 15.79121,-8.81069 120.60009,-69.13724 276.92227,-159.39266 l 53.02437,-30.61457 V 426.37469 227.78378 l -2.03072,-1.27575 C 693.04017,215.50206 389.66282,41.287522 375.78835,34.265767 l -9.62995,-4.87364 -24.21539,13.863205 c -13.31845,7.624763 -67.26665,38.697834 -119.88487,69.051268 -52.61822,30.35344 -118.41356,68.29827 -146.211867,84.32185 -27.798305,16.02359 -51.084372,29.6413 -51.746814,30.26159 -1.001067,0.93737 -1.092462,34.72412 -0.541268,200.09486 l 0.663173,198.96706 24.007369,13.8705 c 13.204054,7.62878 61.575697,35.57477 107.492537,62.10219 95.09884,54.94123 193.71016,111.39502 201.71822,115.48126 4.93065,2.51593 9.59802,4.37483 11.60781,4.62308 0.42751,0.0528 6.54571,-3.12246 13.59598,-7.05615 z"
     id="path6318"
     inkscape:connector-curvature="0" />
  <a
     id="a6538">
    <path
       inkscape:connector-curvature="0"
       id="path6320"
       d="m 12.660567,425.45763 c 9e-6,-113.17881 0.105015,-159.34517 0.233345,-102.59189 0.128331,56.75327 0.128324,149.35412 -1.6e-5,205.77966 -0.12834,56.42554 -0.233338,9.99104 -0.233329,-103.18777 z"
       style="opacity:1;fill:#000000;fill-opacity:0;stroke:#00a400;stroke-width:11.37203407;stroke-miterlimit:4;stroke-dasharray:none;stroke-opacity:1" />
  </a>
  <a
     id="a6541">
    <path
       inkscape:connector-curvature="0"
       id="path6322"
       d="M 181.44373,747.73493 -3.5774561,640.83433 -4.1258131,567.89386 C -4.4274094,527.7766 -4.7320175,430.93544 -4.8027199,352.69128 L -4.9312697,210.42917 64.338857,170.42698 C 102.43743,148.42578 184.58007,101.02439 246.87805,65.09057 309.17604,29.156751 361.82547,-1.2138144 363.87679,-2.3995743 l 3.72966,-2.1559274 36.43347,21.0263937 c 20.03841,11.564516 62.83284,36.272539 95.09873,54.906718 54.54665,31.50175 133.23225,76.93206 208.48728,120.37324 l 31.58899,18.23483 0.20681,123.98174 c 0.11373,68.18996 -0.0894,165.17993 -0.45128,215.5333 l -0.65807,91.55156 -56.86017,32.82909 C 434.52159,816.45059 369.37503,853.9433 368.02036,854.26554 c -0.90529,0.21535 -78.8917,-44.31295 -186.57663,-106.53061 z m 184.07352,87.13946 c -0.65917,-0.60637 -70.711,-41.07791 -74.86589,-43.25279 -0.4964,-0.25984 -0.5801,-0.11873 -0.18601,0.31359 0.74504,0.81729 74.78803,43.68394 75.50317,43.71201 0.22338,0.009 0.0203,-0.339 -0.45127,-0.77281 z m 9.56387,-3.35168 c 3.94806,-2.27724 7.17829,-4.33777 7.17829,-4.57895 0,-0.40128 -6.4111,3.06917 -13.08687,7.08418 -5.82738,3.50476 -0.85815,1.39782 5.90858,-2.50523 z m -5.4573,-3.48876 c 0,-0.57708 -6.58716,-2.33027 -7.04293,-1.87449 -0.20645,0.20645 0.98915,0.76802 2.65688,1.24794 3.66959,1.05601 4.38605,1.15836 4.38605,0.62655 z m 28.65572,-9.92823 c 7.57007,-4.32303 13.76377,-8.05418 13.76377,-8.29145 0,-0.23727 -0.30461,-0.25624 -0.67691,-0.0421 -0.3723,0.21408 -6.8706,3.92626 -14.44068,8.24929 -7.57007,4.32304 -13.76377,8.05418 -13.76377,8.29145 0,0.23727 0.30461,0.25624 0.67691,0.0421 0.3723,-0.21407 6.8706,-3.92626 14.44068,-8.24929 z m -47.61558,1.46569 c -6.20142,-3.39007 -13.71218,-7.51748 -16.69057,-9.17202 -2.97839,-1.65455 -5.00911,-2.58109 -4.51271,-2.059 1.26669,1.33228 30.38789,17.39478 31.5366,17.39478 0.51809,0 -4.13189,-2.77369 -10.33332,-6.16376 z m 35.20562,0.27125 c 0,-0.2482 -2.43687,0.77886 -5.41526,2.28234 -2.97839,1.50349 -5.41525,2.93669 -5.41525,3.18489 0,0.24819 2.43686,-0.77886 5.41525,-2.28234 2.97839,-1.50349 5.41526,-2.93669 5.41526,-3.18489 z m 6.31779,-3.63054 c 0,-0.2482 -1.21843,0.17881 -2.70762,0.9489 -1.4892,0.77009 -2.70763,1.60324 -2.70763,1.85144 0,0.2482 1.21843,-0.1788 2.70763,-0.9489 1.48919,-0.77009 2.70762,-1.60324 2.70762,-1.85144 z m 38.80933,-21.85769 c 18.61493,-10.66196 34.25148,-19.80077 34.74788,-20.30845 0.6017,-0.61539 0.6017,-0.76863 0,-0.45973 -4.27497,2.1947 -71.51217,40.90912 -72.20339,41.5739 -1.49864,1.4413 2.23368,-0.63193 37.45551,-20.80572 z m -6.02783,-16.59865 c 30.33459,-17.4443 95.57922,-55.04939 144.98806,-83.56687 49.40884,-28.51748 99.07404,-57.18019 110.3671,-63.69493 l 20.53284,-11.84497 V 426.24161 233.83422 l -15.11759,-8.77076 C 631.05645,193.33814 462.49101,96.228087 394.58737,57.331682 l -27.83517,-15.944479 -5.10763,2.864108 c -2.80919,1.57526 -5.91991,3.551088 -6.9127,4.39073 -0.9928,0.83964 -8.10032,5.099685 -15.7945,9.466766 -18.13822,10.294943 -97.62646,56.099313 -210.91077,121.535403 -49.731755,28.72641 -91.057845,52.47407 -91.835755,52.77258 -1.279037,0.49082 -1.392594,19.02489 -1.186681,193.68228 l 0.227702,193.13952 52.347458,30.24485 C 228.5951,730.95826 294.10374,768.65738 346.60898,798.55066 c 11.41717,6.50024 21.30919,11.61688 21.98228,11.37031 0.67309,-0.24656 26.04301,-14.7209 56.37761,-32.16519 z m 34.45791,5.12174 c 24.81992,-14.27199 45.53326,-26.36676 46.02966,-26.87727 0.6017,-0.6188 0.6017,-0.77282 0,-0.46208 -4.8503,2.50494 -91.3813,52.59532 -92.05932,53.29058 -1.22891,1.26014 -4.4934,3.10063 46.02966,-25.95123 z m -131.31991,24.37871 c 0,-0.23545 -1.21844,-1.05817 -2.70763,-1.82826 -3.39435,-1.75529 -3.59974,-0.9929 -0.22564,0.83759 2.83629,1.5387 2.93327,1.57146 2.93327,0.99067 z m -6.8142,-3.94704 c -0.66265,-0.59121 -44.55128,-25.7478 -48.69216,-27.90994 -0.6017,-0.31418 -0.6017,-0.15892 0,0.46577 0.91605,0.95106 48.39735,28.20453 49.14343,28.20751 0.22338,8.9e-4 0.0203,-0.34261 -0.45127,-0.76334 z m -31.99513,-12.25566 c 0,-0.21176 -2.33532,-1.71274 -5.18961,-3.33549 -2.85429,-1.62275 -5.59577,-3.41707 -6.09217,-3.98738 -0.67754,-0.77842 -19.51942,-11.8376 -34.07097,-19.99785 -0.3723,-0.20877 -0.67691,-0.19457 -0.67691,0.0316 0,0.22614 7.20906,4.57359 16.02013,9.661 8.81107,5.0874 16.2232,9.5562 16.4714,9.93066 0.38419,0.57963 12.66441,8.0207 13.3125,8.06656 0.1241,0.009 0.22563,-0.15729 0.22563,-0.36906 z M 271.2467,774.76471 c 0,-0.23546 -1.21844,-1.05817 -2.70763,-1.82827 -3.39435,-1.75529 -3.59974,-0.99289 -0.22564,0.83759 2.83629,1.53871 2.93327,1.57146 2.93327,0.99068 z m 201.26695,-4.58225 c 0,-0.2482 -1.21844,0.1788 -2.70763,0.9489 -1.4892,0.77009 -2.70763,1.60324 -2.70763,1.85144 0,0.2482 1.21843,-0.1788 2.70763,-0.9489 1.48919,-0.77009 2.70763,-1.60324 2.70763,-1.85144 z m -207.58475,1.02789 c 0,-0.20475 -3.14762,-2.17453 -6.9947,-4.37729 -3.84709,-2.20275 -24.86505,-14.27402 -46.70657,-26.82503 -44.56929,-25.6113 -41.84156,-24.07879 -40.61441,-22.81805 0.4964,0.50998 20.19439,11.99844 43.77331,25.5299 23.57892,13.53146 44.49534,25.55733 46.48093,26.72417 3.82875,2.24995 4.06144,2.35115 4.06144,1.7663 z m 220.44597,-8.15989 c 5.83268,-3.33256 10.60488,-6.25234 10.60488,-6.48839 0,-0.23605 -0.30461,-0.25495 -0.67691,-0.042 -0.3723,0.21296 -5.4491,3.11384 -11.28178,6.44641 -5.83268,3.33256 -10.60487,6.25234 -10.60487,6.48839 0,0.23606 0.30461,0.25495 0.67691,0.042 0.37229,-0.21295 5.44909,-3.11384 11.28177,-6.44641 z m -243.00953,0.0334 c 0,-0.20676 -4.77219,-3.10256 -10.60487,-6.43513 -12.93554,-7.39086 -12.57909,-7.20136 -11.66371,-6.20075 0.63446,0.69355 21.39502,12.92797 22.04295,12.99015 0.12409,0.0119 0.22563,-0.14751 0.22563,-0.35427 z m 304.15678,-35.26082 c 23.08252,-13.2838 42.37437,-24.56832 42.87076,-25.07668 0.6017,-0.61621 0.6017,-0.76938 0,-0.45951 -4.82671,2.4857 -91.38089,52.61248 -92.05932,53.31501 -1.14488,1.18556 -0.94698,1.0738 49.18856,-27.77882 z m -27.75318,20.78675 c 5.83268,-3.33257 10.60488,-6.25235 10.60488,-6.4884 0,-0.23605 -0.30461,-0.25495 -0.67691,-0.042 -0.3723,0.21296 -5.4491,3.11385 -11.28178,6.44641 -5.83268,3.33257 -10.60487,6.25235 -10.60487,6.4884 0,0.23605 0.3046,0.25495 0.6769,0.042 0.3723,-0.21295 5.4491,-3.11384 11.28178,-6.4464 z m -299.8697,0.9359 c 0,-0.20676 -4.77219,-3.10257 -10.60487,-6.43513 -12.93554,-7.39086 -12.57909,-7.20136 -11.66371,-6.20075 0.63446,0.69354 21.39502,12.92797 22.04294,12.99015 0.1241,0.0119 0.22564,-0.14751 0.22564,-0.35427 z m 342.9661,-25.7878 c 16.62934,-9.56033 30.64131,-17.79772 31.13771,-18.30531 1.22411,-1.25172 2.99162,-2.23844 -31.13771,17.38275 -16.62934,9.56034 -30.64131,17.79772 -31.13771,18.30531 -1.22411,1.25173 -2.99161,2.23844 31.13771,-17.38275 z m -366.4322,12.24966 c 0,-0.20675 -4.7722,-3.10256 -10.60488,-6.43513 -12.93553,-7.39085 -12.57908,-7.20136 -11.6637,-6.20074 0.63446,0.69354 21.39502,12.92796 22.04294,12.99015 0.1241,0.0119 0.22564,-0.14752 0.22564,-0.35428 z m -23.9625,-13.95589 c -0.66276,-0.61348 -64.51681,-37.53878 -68.5481,-39.63976 -0.49639,-0.2587 -0.58396,-0.12052 -0.19459,0.30707 0.73511,0.80727 68.4772,40.07266 69.19396,40.10695 0.22338,0.0107 0.0203,-0.33773 -0.45127,-0.77426 z m -2.21123,-5.90004 c 0,-0.20676 -4.77219,-3.10256 -10.60487,-6.43513 -12.93554,-7.39086 -12.57909,-7.20136 -11.66371,-6.20074 0.63446,0.69354 21.39502,12.92796 22.04294,12.99014 0.1241,0.0119 0.22564,-0.14751 0.22564,-0.35427 z m 437.05614,-18.08421 c 5.83268,-3.33256 10.60488,-6.25234 10.60488,-6.48839 0,-0.23605 -0.30461,-0.25495 -0.67691,-0.042 -0.3723,0.21295 -5.4491,3.11384 -11.28178,6.44641 -5.83268,3.33256 -10.60487,6.25234 -10.60487,6.48839 0,0.23605 0.3046,0.25495 0.6769,0.042 0.3723,-0.21295 5.4491,-3.11384 11.28178,-6.44641 z m -460.52224,4.55911 c 0,-0.19958 -8.63056,-5.33091 -19.17903,-11.40294 -22.17882,-12.76684 -21.19928,-12.22551 -20.26078,-11.19686 0.62106,0.68073 38.59143,22.89858 39.21417,22.94564 0.1241,0.009 0.22564,-0.14625 0.22564,-0.34584 z m 450.36864,-3.74491 c 0,-0.24819 -1.21843,0.17881 -2.70763,0.9489 -1.48919,0.7701 -2.70762,1.60324 -2.70762,1.85144 0,0.2482 1.21843,-0.1788 2.70762,-0.9489 1.4892,-0.77009 2.70763,-1.60324 2.70763,-1.85144 z m 12.86123,-7.13199 c 5.83268,-3.33257 10.60487,-6.25235 10.60487,-6.4884 0,-0.23605 -0.30461,-0.25495 -0.6769,-0.042 -0.3723,0.21296 -5.4491,3.11385 -11.28178,6.44641 -5.83268,3.33257 -10.60488,6.25235 -10.60488,6.4884 0,0.23605 0.30461,0.25495 0.67691,0.042 0.3723,-0.21296 5.4491,-3.11385 11.28178,-6.44641 z m 17.59958,-5.41532 c 4.09528,-2.34374 7.44597,-4.45285 7.44597,-4.68689 0,-0.23405 -0.30461,-0.25292 -0.67691,-0.042 -10.44443,5.91919 -15.56885,8.99072 -15.56885,9.33186 0,0.23405 0.30461,0.25291 0.67691,0.042 0.37229,-0.211 4.02759,-2.30123 8.12288,-4.64497 z m 28.65572,-21.23494 c 18.36673,-10.55332 33.80021,-19.60459 34.29661,-20.11393 0.60169,-0.61739 0.60169,-0.77131 0,-0.46176 -4.60214,2.36763 -67.90858,39.06407 -68.59322,39.76098 -1.2396,1.26182 -3.10917,2.30765 34.29661,-19.18529 z m -553.70975,16.75929 c 0,-0.20475 -3.350688,-2.28988 -7.445974,-4.63362 -9.343543,-5.34733 -9.403607,-5.3784 -8.514594,-4.40551 0.635363,0.69532 15.115408,9.33816 15.734928,9.39186 0.1241,0.0107 0.22564,-0.14797 0.22564,-0.35273 z m 568.15042,-20.36946 c 18.36674,-10.55332 33.80022,-19.60459 34.29661,-20.11393 0.6017,-0.61739 0.6017,-0.77131 0,-0.46176 -4.60213,2.36763 -67.90857,39.06407 -68.59322,39.76098 -1.23959,1.26182 -3.10916,2.30765 34.29661,-19.18529 z M 105.1789,679.16042 c 0,-0.19959 -8.630562,-5.33091 -19.179026,-11.40294 -22.17882,-12.76684 -21.199275,-12.22551 -20.260788,-11.19686 0.621067,0.68073 38.591444,22.89858 39.214174,22.94564 0.1241,0.009 0.22564,-0.14625 0.22564,-0.34584 z m -20.758475,-7.23338 c 0,-0.20675 -4.772192,-3.10256 -10.604873,-6.43513 -12.935537,-7.39085 -12.579086,-7.20135 -11.663706,-6.20074 0.634463,0.69354 21.395018,12.92796 22.042944,12.99015 0.124099,0.0119 0.225635,-0.14751 0.225635,-0.35428 z M 60.954324,658.38891 c 0,-0.20676 -4.772193,-3.10257 -10.604873,-6.43513 -12.935537,-7.39086 -12.579087,-7.20136 -11.663707,-6.20075 0.634463,0.69354 21.395021,12.92797 22.042944,12.99015 0.1241,0.0119 0.225636,-0.14751 0.225636,-0.35427 z m 3.610169,-2.70067 c 0,-0.20294 -10.052066,-6.14718 -22.337924,-13.20943 -25.666381,-14.75375 -24.368505,-14.03399 -23.404679,-12.97945 0.631487,0.69091 44.886738,26.49699 45.516967,26.5418 0.1241,0.009 0.225636,-0.14999 0.225636,-0.35292 z M 37.488222,644.82986 c 0,-0.21825 -5.482945,-3.51413 -12.184322,-7.32416 l -12.184322,-6.92732 v -35.92267 c 0,-27.89364 0.252157,-36.02441 1.128178,-36.37789 0.670177,-0.27042 0.482866,-0.48416 -0.461395,-0.52648 -1.496553,-0.0671 -1.575777,2.07869 -1.353814,36.66743 l 0.23576,36.73868 12.184322,7.01168 c 12.843281,7.39089 12.635593,7.28141 12.635593,6.66073 z M 699.72869,639.4021 c 4.09528,-2.34374 7.44597,-4.45285 7.44597,-4.6869 0,-0.23405 -0.3046,-0.25291 -0.6769,-0.042 -10.44444,5.91919 -15.56886,8.99072 -15.56886,9.33187 0,0.23404 0.30461,0.25291 0.67691,0.042 0.3723,-0.211 4.02759,-2.30123 8.12288,-4.64497 z m 19.85593,-6.57459 2.93326,-1.47327 V 425.42281 219.49138 L 696.11852,204.2849 c -29.59298,-17.04605 -33.35616,-19.14345 -31.23449,-17.4084 0.81547,0.66686 13.8989,8.32001 29.07429,17.00698 l 27.59162,15.79449 0.0327,205.4862 0.0327,205.4862 -8.12288,4.64836 c -4.46758,2.55661 -8.12288,4.84443 -8.12288,5.08408 0,0.23964 2.5384,-1.03079 5.64089,-2.82316 3.10249,-1.79239 6.96086,-3.92185 8.57415,-4.73214 z m -0.91166,-206.46734 -0.21652,-202.16949 -8.12288,-4.88681 c -9.60566,-5.77887 -79.31331,-46.18802 -82.58263,-47.87271 -1.24099,-0.63949 -1.85021,-0.76242 -1.35381,-0.27317 0.4964,0.48925 15.52373,9.3219 33.39407,19.62813 17.87034,10.30622 38.27908,22.17284 45.35275,26.37026 l 12.86123,7.63168 v 201.57893 201.57893 l -4.96398,2.8401 c -6.71107,3.83969 -6.34042,4.43677 0.44215,0.71229 l 5.40615,-2.96865 z M 18.333324,566.29444 c -0.204462,-10.68031 -0.439081,-12.64451 -1.293548,-10.82941 -0.574082,1.2195 -0.675618,1.98973 -0.225636,1.71163 0.479729,-0.29649 0.900702,9.68961 1.017723,24.1419 0.116105,14.339 0.314935,19.07975 0.475399,11.33504 0.151704,-7.32187 0.163432,-19.1835 0.02607,-26.35916 z M 17.429417,279.4714 17.226545,263 l -0.269799,15.58916 -0.269798,15.58916 -2.00932,-0.98342 c -1.778737,-0.87056 -1.750388,-0.77163 0.247035,0.86217 1.240995,1.01507 2.357891,1.85462 2.481991,1.86566 0.1241,0.011 0.134343,-7.39206 0.02276,-16.45133 z m 2.2784,-55.49267 c 0.396942,-0.61297 3.544559,-2.79151 6.994703,-4.8412 3.450144,-2.0497 6.27299,-3.90694 6.27299,-4.12719 0,-0.89542 -9.464725,4.86242 -12.298597,7.48183 l -3.044623,2.81419 0.165297,9.37013 0.165298,9.37012 0.511608,-9.47669 c 0.281386,-5.21218 0.836381,-9.97822 1.233324,-10.59119 z M 30.94479,209.82066 c 7.570074,-4.35562 13.763771,-8.09684 13.763771,-8.31382 0,-0.51588 -1.23653,0.15976 -16.956872,9.26514 -7.303064,4.23001 -13.684442,8.14035 -14.18084,8.68966 -0.496398,0.5493 0.112818,0.38665 1.353814,-0.36146 1.240995,-0.74811 8.450053,-4.92389 16.020127,-9.27952 z m 12.409957,-0.79045 c 0.496399,-0.5121 -1.128178,0.20511 -3.610169,1.5938 -2.481992,1.38868 -4.918856,2.94385 -5.415254,3.45596 -0.496399,0.51209 1.128178,-0.20511 3.610169,-1.5938 2.481992,-1.38868 4.918856,-2.94386 5.415254,-3.45596 z m 29.783899,-16.88664 c 14.891949,-8.56879 27.482414,-15.99062 27.978814,-16.49295 1.25,-1.26493 2.41418,-1.91477 -28.655721,15.99562 -15.264248,8.79915 -27.753178,16.19151 -27.753178,16.42746 0,0.23596 0.304608,0.25362 0.676907,0.0393 0.372298,-0.21437 12.861228,-7.40059 27.753178,-15.96938 z m -18.727755,4.11022 c 4.095286,-2.34374 7.445975,-4.45285 7.445975,-4.68689 0,-0.23405 -0.304608,-0.25291 -0.676907,-0.042 -10.444435,5.91919 -15.568856,8.99072 -15.568856,9.33186 0,0.23405 0.304608,0.25291 0.676907,0.042 0.372299,-0.211 4.027595,-2.30123 8.122881,-4.64497 z m 13.763772,-8.21116 c 0,-0.2482 -1.218433,0.1788 -2.707628,0.9489 -1.489194,0.77009 -2.707627,1.60324 -2.707627,1.85144 0,0.2482 1.218433,-0.17881 2.707627,-0.9489 1.489195,-0.77009 2.707628,-1.60324 2.707628,-1.85144 z m 9.70233,-5.32698 c 4.095286,-2.34374 7.445975,-4.45284 7.445975,-4.68689 0,-0.23405 -0.304608,-0.25291 -0.676907,-0.042 -10.444435,5.91919 -15.568856,8.99072 -15.568856,9.33187 0,0.23404 0.304608,0.25291 0.676907,0.042 0.372298,-0.21099 4.027595,-2.30123 8.122881,-4.64497 z m 584.576697,2.32649 c -0.65937,-0.6079 -58.03287,-33.82521 -62.2303,-36.02923 -0.4964,-0.26066 -0.5764,-0.1165 -0.17777,0.32034 0.75073,0.82271 62.13959,36.45132 62.85934,36.48204 0.22338,0.01 0.0203,-0.33838 -0.45127,-0.77315 z M 135.86534,149.29338 c 23.08252,-13.28381 42.37437,-24.56832 42.87076,-25.07669 0.6017,-0.6162 0.6017,-0.76937 0,-0.4595 -4.82671,2.4857 -91.380887,52.61248 -92.059319,53.31501 -1.144884,1.18556 -0.946983,1.0738 49.188559,-27.77882 z m -21.43538,18.98166 c 5.83268,-3.33257 10.60487,-6.25234 10.60487,-6.4884 0,-0.23605 -0.30461,-0.25495 -0.6769,-0.042 -0.3723,0.21295 -5.4491,3.11384 -11.28178,6.44641 -5.83268,3.33256 -10.60488,6.25234 -10.60488,6.48839 0,0.23605 0.30461,0.25495 0.67691,0.042 0.3723,-0.21296 5.4491,-3.11384 11.28178,-6.44641 z m 510.61335,1.83624 c 0,-0.20796 -6.1937,-3.91515 -13.76377,-8.23818 -16.52588,-9.43742 -15.7486,-9.01775 -14.81678,-7.99979 0.63414,0.69278 27.68989,16.52571 28.35491,16.5932 0.1241,0.0126 0.22564,-0.14726 0.22564,-0.35523 z M 137.89606,154.7369 c 5.83268,-3.33256 10.60487,-6.25234 10.60487,-6.48839 0,-0.23605 -0.3046,-0.25495 -0.6769,-0.042 -0.3723,0.21296 -5.4491,3.11384 -11.28178,6.44641 -5.83268,3.33256 -10.60488,6.25234 -10.60488,6.48839 0,0.23606 0.30461,0.25495 0.67691,0.042 0.3723,-0.21295 5.4491,-3.11384 11.28178,-6.44641 z m 457.36335,-1.77393 c 0,-0.20796 -6.1937,-3.91514 -13.76377,-8.23818 -16.52588,-9.43741 -15.7486,-9.01775 -14.81678,-7.99979 0.63415,0.69278 27.68989,16.52571 28.35491,16.59321 0.1241,0.0126 0.22564,-0.14726 0.22564,-0.35524 z m 3.61017,-4.5105 c 0,-0.20676 -4.77219,-3.10257 -10.60487,-6.43513 -12.93554,-7.39086 -12.57909,-7.20136 -11.66371,-6.20075 0.63446,0.69354 21.39502,12.92797 22.04294,12.99015 0.1241,0.0119 0.22564,-0.14751 0.22564,-0.35427 z M 184.15136,128.08665 c 18.36673,-10.55332 33.80021,-19.60459 34.29661,-20.11393 1.21564,-1.24736 3.4558,-2.50041 -34.29661,19.18413 -18.36674,10.54964 -33.80021,19.59801 -34.29661,20.10749 -1.23605,1.26862 -3.15896,2.34386 34.29661,-19.17769 z m 381.32415,7.72473 c 0,-0.20978 -10.45821,-6.35253 -23.24047,-13.65055 -27.25154,-15.55927 -25.2387,-14.4479 -24.29575,-13.41464 0.62569,0.68561 46.62341,27.34653 47.31058,27.42187 0.1241,0.0136 0.22564,-0.1469 0.22564,-0.35668 z m 9.92797,-0.89009 c 0,-0.20294 -10.05207,-6.14718 -22.33793,-13.20943 -25.62416,-14.72948 -24.36482,-14.03059 -23.42593,-13.00071 0.61192,0.67121 44.90324,26.50318 45.53822,26.55921 0.1241,0.0109 0.22564,-0.14614 0.22564,-0.34907 z M 256.35475,79.789162 c 37.72627,-21.72456 68.99936,-39.919682 69.49576,-40.433603 1.17998,-1.221624 3.46111,-2.519372 -75.81356,43.130707 -37.72627,21.724564 -68.99936,39.919684 -69.49576,40.433604 -1.17998,1.22162 -3.46111,2.51937 75.81356,-43.130708 z m 260.38347,27.996728 c 0,-0.23545 -1.21843,-1.05817 -2.70762,-1.82826 -3.39436,-1.75529 -3.59974,-0.9929 -0.22564,0.83759 2.83628,1.5387 2.93326,1.57146 2.93326,0.99067 z m 11.73305,0.0522 c 0,-0.20676 -4.77219,-3.10256 -10.60487,-6.43513 -12.93553,-7.390855 -12.57908,-7.201357 -11.66371,-6.200745 0.63446,0.693541 21.39502,12.927965 22.04295,12.990145 0.1241,0.0119 0.22563,-0.14751 0.22563,-0.35427 z m -303.25423,-3.73187 c 0,-0.2482 -1.21844,0.1788 -2.70763,0.9489 -1.4892,0.77009 -2.70763,1.60324 -2.70763,1.85144 0,0.2482 1.21843,-0.17881 2.70763,-0.9489 1.48919,-0.77009 2.70763,-1.60324 2.70763,-1.85144 z m 284.70699,-0.30608 c -0.79216,-0.74253 -99.13,-57.03812 -104.19852,-59.650658 -1.241,-0.639664 -1.97179,-0.857293 -1.62399,-0.483619 0.68107,0.731739 105.59823,60.864637 106.27378,60.910447 0.22338,0.0152 0.0203,-0.33413 -0.45127,-0.77617 z M 252.29331,88.819279 c 13.65095,-7.823226 25.22606,-14.639222 25.72245,-15.146654 1.21143,-1.238362 2.55516,-1.98142 -25.72245,14.224202 -13.65096,7.823228 -25.22606,14.639223 -25.72246,15.146653 -1.21143,1.23836 -2.55515,1.98143 25.72246,-14.224201 z m 252.21546,5.066368 c -0.65959,-0.60788 -47.14335,-27.478115 -51.39978,-29.711968 -0.4964,-0.260519 -0.57529,-0.11515 -0.17532,0.323044 0.75102,0.822783 51.30295,30.129171 52.02637,30.161166 0.22338,0.0098 0.0203,-0.337632 -0.45127,-0.772242 z M 294.48716,64.482842 c 7.57008,-4.323035 13.76377,-8.054188 13.76377,-8.291453 0,-0.237266 -0.3046,-0.256238 -0.6769,-0.04216 -0.3723,0.214077 -6.87061,3.926258 -14.44068,8.249291 -7.57007,4.323035 -13.76377,8.054188 -13.76377,8.291453 0,0.237266 0.30461,0.256238 0.6769,0.04216 0.3723,-0.214077 6.87061,-3.926258 14.44068,-8.249291 z m 157.26801,-0.869356 c 0,-0.206757 -4.77219,-3.102567 -10.60487,-6.435132 -12.93554,-7.390858 -12.57909,-7.201359 -11.66371,-6.200742 0.63446,0.693542 21.39502,12.927961 22.04295,12.990142 0.1241,0.01191 0.22563,-0.14751 0.22563,-0.354268 z m -113.51214,-24.343419 27.73575,-15.932743 7.23777,3.639081 c 3.98078,2.001495 7.23777,3.43601 7.23777,3.187811 0,-0.248199 -3.25699,-2.088858 -7.23777,-4.090353 l -7.23777,-3.639082 -27.73575,15.922273 c -15.25465,8.75725 -28.14188,16.338976 -28.63828,16.84828 -1.21008,1.241536 -2.90149,2.182692 28.63828,-15.935267 z m 90.04604,10.796643 c 0,-0.21151 -9.44285,-5.760237 -20.98411,-12.330506 -11.54126,-6.570268 -22.81176,-13.235972 -25.04555,-14.812676 -2.23379,-1.576704 -6.29898,-4.124716 -9.03376,-5.66225 l -4.97231,-2.795517 -13.68027,7.839155 c -7.52415,4.311535 -14.01871,8.210099 -14.43234,8.663476 -0.77855,0.853326 3.66295,-1.573948 19.08955,-10.432421 l 9.01113,-5.174493 4.97828,2.803641 c 2.73805,1.542002 5.58749,3.387345 6.33209,4.100762 1.07313,1.028195 47.65099,28.066291 48.51165,28.160654 0.1241,0.01361 0.22564,-0.148315 0.22564,-0.359825 z m -25.27119,-7.208232 c 0,-0.204851 -4.56912,-2.901636 -10.1536,-5.992855 -12.58698,-6.967366 -12.10464,-6.719716 -11.23875,-5.770267 0.61026,0.66917 20.51169,12.061462 21.16672,12.116589 0.1241,0.01044 0.22563,-0.148616 0.22563,-0.353467 z M 338.4861,32.118413 c 0.4964,-0.502551 -1.53432,0.41537 -4.51271,2.039824 -2.97839,1.624454 -5.8214,3.375937 -6.31779,3.892183 -0.4964,0.516246 1.53432,-0.401675 4.51271,-2.039825 2.97839,-1.638149 5.8214,-3.389631 6.31779,-3.892182 z"
       style="opacity:1;fill:#000000;fill-opacity:0;stroke:#00a400;stroke-width:11.37203407;stroke-miterlimit:4;stroke-dasharray:none;stroke-opacity:1" />
  </a>
  <path
     style="opacity:1;fill:#000000;fill-opacity:0;stroke:#00a400;stroke-width:9.07199879;stroke-miterlimit:4;stroke-dasharray:none;stroke-opacity:1"
     d="m 366.95928,858.27243 c -0.72089,-0.45605 -1.63124,-0.63108 -2.023,-0.38896 -0.39175,0.24212 -3.45721,-1.07197 -6.81215,-2.92018 C 335.39487,842.44184 224.48583,778.68961 40.555823,672.42012 L -8.2727631,644.20836 -8.8490203,626.44105 C -9.1659619,616.66902 -9.6965592,518.46518 -10.028126,408.21028 l -0.602848,-200.46345 5.7831151,-3.39715 C 26.372884,186.00979 365.79611,-9.4646476 366.94053,-9.7639194 367.82722,-9.995795 425.28194,22.650761 505.09941,68.739844 580.25193,112.13523 664.73969,160.91816 692.85002,177.14635 l 51.10967,29.50578 0.6273,85.03411 c 0.73419,99.52506 -0.56785,351.36358 -1.82293,352.58841 -1.38654,1.35313 -361.98977,209.228 -370.16216,213.38525 -3.3204,1.68907 -3.84999,1.74657 -5.64262,0.61253 z M 429.3832,769.10064 C 462.82735,749.8652 536.35895,707.52469 592.78676,675.0106 l 102.59602,-59.11653 0.0294,-189.57046 0.0294,-189.57046 -58.43962,-33.75386 C 511.88503,130.73359 371.00704,49.739041 368.16908,48.44 c -1.57683,-0.721776 -3.52519,0.138579 -11.28178,4.981818 -5.15668,3.219847 -25.82461,15.301566 -45.92874,26.848264 -20.10413,11.546694 -83.86875,48.285348 -141.69915,81.641438 -57.8304,33.3561 -110.268195,63.54477 -116.528424,67.08594 l -11.382237,6.43849 -0.57645,4.20567 c -0.317048,2.31311 -0.57645,87.92003 -0.57645,190.23758 0,176.19803 0.08349,186.08377 1.579449,187.0125 4.056286,2.51825 218.421582,126.07835 262.414192,151.25547 53.20554,30.44971 62.83674,35.87147 63.78208,35.90534 0.33225,0.0119 27.96749,-15.71644 61.41163,-34.95187 z M 17.63229,253.52331 v -9.92797 h -2.707627 -2.707628 v 9.92797 9.92796 h 2.707628 2.707627 z"
     id="path6324"
     inkscape:connector-curvature="0" />
  <rect
     style="opacity:1;fill:#ffffff;fill-opacity:0;stroke:#ffffff;stroke-width:0;stroke-miterlimit:4;stroke-dasharray:none;stroke-opacity:1"
     id="rect6429"
     width="718.42371"
     height="732.86438"
     x="0"
     y="109.20763" />
  <g
     inkscape:groupmode="layer"
     id="layer1"
     inkscape:label="Layer 1"
     style="display:inline" />
</svg>
